<svg width="110" height="95" viewBox="0 0 110 95" fill="none" xmlns="http://www.w3.org/2000/svg">
    <path
        d="M43.9314 27.7906C42.2173 25.8418 39.3699 25.8961 37.7216 27.4071C38.0306 27.3899 38.3426 27.4328 38.6287 27.5616C40.3286 28.2971 39.2869 29.1355 38.045 29.4589C37.5556 29.5905 37.0233 29.6535 36.5311 29.519C36.4825 29.7508 36.451 29.9969 36.4424 30.2516C36.2163 32.9444 38.9864 35.2481 41.5934 34.6071C44.767 33.9947 46.1406 30.2087 43.9314 27.7906Z"
        fill="#00E2ED" />
    <path
        d="M58.6741 39.6949C53.4144 39.6949 46.9213 38.6417 41.1922 34.6554C40.8688 34.4293 40.7887 33.9829 41.0148 33.6596C41.2409 33.3362 41.6873 33.2561 42.0106 33.4821C53.3257 41.3575 68.3466 37.0507 68.4983 37.0077C69.042 36.8618 70.4757 36.2837 70.7847 35.3279C70.9765 34.7356 70.7189 34.0001 70.0207 33.1473C67.7342 30.3486 56.5365 30.6949 52.4157 31.0612C52.0179 31.0927 51.6745 30.8065 51.6402 30.4116C51.6058 30.0167 51.8948 29.6704 52.2898 29.6361C53.8837 29.493 67.9546 28.3569 71.131 32.2402C72.1584 33.4965 72.4989 34.684 72.1469 35.7686C71.5316 37.663 68.9933 38.3556 68.8875 38.3842C68.5584 38.4786 64.3288 39.6949 58.6741 39.6949Z"
        fill="black" />
    <path
        d="M54.6657 42.0502C53.192 42.0502 50.9541 41.7984 48.9109 40.5564C48.6419 40.3933 48.5103 40.0699 48.5904 39.7637L48.8966 38.5904C48.9968 38.207 49.386 37.978 49.7694 38.0782C50.1529 38.1784 50.3818 38.5675 50.2817 38.951L50.1157 39.5892C52.2534 40.6938 54.5999 40.6566 55.5872 40.5764L55.7818 39.6092C55.8591 39.2229 56.2368 38.9711 56.6231 39.0483C57.0094 39.1256 57.2613 39.5033 57.184 39.8896L56.8864 41.3691C56.8292 41.6582 56.5974 41.8842 56.3055 41.9329C56.2397 41.9472 55.6101 42.0502 54.6657 42.0502Z"
        fill="black" />
    <path
        d="M61.3276 42.2792C60.8841 42.2792 60.5665 42.2277 60.3719 42.1218C60.0971 41.9759 59.9483 41.6668 60.0056 41.3606L60.2459 40.0671C60.3175 39.6779 60.6924 39.4232 61.0815 39.4948C61.4707 39.5663 61.7254 39.9412 61.6539 40.3304L61.5566 40.8512C62.3149 40.7997 63.6313 40.5822 64.8303 40.3275L65.3826 38.6449C65.5057 38.27 65.9092 38.064 66.2841 38.187C66.6589 38.3101 66.865 38.7136 66.7419 39.0884L66.0608 41.1603C65.9836 41.4007 65.7833 41.5809 65.5372 41.6353C63.637 42.0645 62.2291 42.2792 61.3276 42.2792Z"
        fill="black" />
    <path
        d="M46.2554 12.6952C45.2767 13.0615 42.9759 14.2691 43.1819 16.1979C43.388 18.1295 47.3571 17.5171 48.7221 17.1794C49.821 16.9076 52.1847 16.0834 51.641 13.7225C51.0973 11.3645 47.6147 12.1887 46.2554 12.6952Z"
        fill="black" />
    <path
        d="M64.3806 18.6959C64.2919 18.4469 64.1717 18.2066 64.1116 17.949C64.083 17.7802 64.083 17.6113 64.063 17.4396C64.0544 17.2107 64.0372 16.9818 64.0916 16.7557C64.2461 16.1004 64.827 15.5538 65.5081 15.5137C66.2178 15.4422 66.9132 15.6997 67.5313 16.026C67.9548 16.2263 68.3383 16.501 68.7132 16.7815C69.2083 17.1334 69.6089 17.5885 69.9838 18.0606C70.4216 18.5299 70.5389 19.2082 70.4817 19.832C70.4359 20.4902 70.0954 21.1655 69.4916 21.4717C68.6216 21.9038 67.2108 21.2743 66.4296 20.825C65.8515 20.5159 65.3593 20.0695 64.9444 19.563C64.7269 19.2997 64.5065 19.0221 64.3806 18.6959Z"
        fill="black" />
    <path
        d="M71.0723 31.1414C70.9893 31.1414 70.9063 31.1271 70.8233 31.0956C70.4542 30.9582 70.2624 30.5462 70.4027 30.177C71.2697 27.8361 71.4042 26.1363 70.809 24.9773C70.3397 24.0616 69.3896 23.4206 67.9101 23.0142C63.3057 21.7522 61.9006 22.4648 61.2138 23.9214C60.8075 24.777 60.7932 27.5385 60.9534 28.5859C61.0135 28.9751 60.7474 29.3414 60.3553 29.4015C59.9633 29.4616 59.5998 29.1954 59.5397 28.8034C59.3795 27.7789 59.3165 24.5824 59.9204 23.309C61.3798 20.2241 64.8052 20.682 68.2879 21.6349C70.1508 22.1443 71.4271 23.0486 72.0825 24.3249C72.8809 25.8816 72.775 27.8991 71.7448 30.6749C71.636 30.964 71.3613 31.1414 71.0723 31.1414Z"
        fill="black" />
    <path
        d="M47.9269 32.392C47.5692 32.392 47.2029 32.3749 46.8338 32.3405C44.1925 32.1001 38.0341 30.6407 37.8853 22.3447C37.8825 22.1501 37.9225 17.6258 46.2901 17.3539C54.028 17.1021 56.0712 17.5514 56.821 22.276C57.2588 25.0289 56.469 27.7218 54.6519 29.662C52.9864 31.4391 50.6283 32.3892 47.9269 32.392ZM49.1832 18.7275C48.3562 18.7275 47.4147 18.7476 46.333 18.7819C39.4564 19.0051 39.3162 22.1959 39.3133 22.3333C39.4363 29.2013 44.1581 30.6607 46.9625 30.9154C49.6668 31.1615 52.0277 30.3688 53.6045 28.6833C55.1155 27.0665 55.7736 24.8143 55.4045 22.4992C54.9352 19.5317 54.3771 18.7275 49.1832 18.7275Z"
        fill="black" />
    <path
        d="M59.9722 28.6575C59.7433 28.6575 59.5172 28.5459 59.3799 28.3427C59.294 28.2254 58.5443 27.304 56.584 28.3714C56.2377 28.5602 55.8028 28.4315 55.6139 28.0852C55.425 27.7389 55.5538 27.3039 55.9001 27.1151C58.4613 25.7214 60.0753 26.7889 60.5732 27.5501C60.7878 27.882 60.6962 28.3256 60.3643 28.5402C60.2412 28.6203 60.1067 28.6575 59.9722 28.6575Z"
        fill="black" />
    <path
        d="M56.6511 33.76C57.1032 33.9174 57.4237 33.6055 57.8472 33.926C58.1105 34.072 58.4253 33.906 58.5741 33.6713C58.7487 33.368 58.6256 32.9559 58.431 32.6897C58.0561 32.2834 57.4638 32.023 56.9172 32.209C56.322 32.3492 55.8355 32.7556 56.2476 33.3708C56.3506 33.5282 56.4593 33.7056 56.6511 33.76Z"
        fill="black" />
    <path
        d="M62.7632 34.278C62.8404 34.2694 62.9177 34.2694 62.9921 34.2866C63.118 34.3409 63.2182 34.4353 63.347 34.4869C63.5788 34.6185 63.8563 34.6385 64.1053 34.5441C64.3371 34.4382 64.5317 34.2093 64.5889 33.9603C64.712 33.6684 64.6347 33.3021 64.3829 33.1018C63.8563 32.6955 63.0436 32.7155 62.5428 33.1533C62.374 33.305 62.188 33.4309 62.1708 33.6827C62.1451 33.9088 62.1966 34.195 62.4312 34.2894C62.54 34.3266 62.6544 34.2951 62.7632 34.278Z"
        fill="black" />
    <path
        d="M71.8381 21.2371C71.8037 21.2371 71.7666 21.2343 71.7294 21.2285C71.3373 21.1684 71.0712 20.805 71.1284 20.4129C71.1885 20.0066 72.4133 10.8464 62.4346 6.10172C56.6626 3.35738 50.4385 3.23148 44.4204 3.11129C40.1422 3.02544 36.0729 2.94244 32.596 1.86645C32.9623 3.34021 33.8608 5.78408 35.8783 6.57677C36.2475 6.71985 36.4278 7.13765 36.2818 7.50395C36.1387 7.87024 35.7238 8.05338 35.3546 7.90743C31.603 6.43367 30.9706 1.08236 30.9448 0.856288C30.9162 0.607322 31.0221 0.361216 31.2224 0.209547C31.4227 0.0578784 31.686 0.0206717 31.9206 0.115107C35.4061 1.49729 39.7988 1.58888 44.4462 1.68045C50.3269 1.80064 56.9946 1.93514 63.0442 4.81112C68.7647 7.52971 71.0454 11.6763 71.9497 14.6753C72.9312 17.929 72.5535 20.5188 72.5363 20.6276C72.4905 20.9824 72.1872 21.2371 71.8381 21.2371Z"
        fill="black" />
    <path
        d="M30.4613 19.5947C27.757 19.5947 25.2645 18.5273 25.1386 18.4729C24.9096 18.3728 24.7494 18.161 24.715 17.9149C24.6807 17.6688 24.778 17.4198 24.9726 17.2624L35.2746 8.84913C35.5808 8.60016 36.0301 8.64595 36.2819 8.95214C36.5337 9.25834 36.4851 9.70763 36.1789 9.95946L26.8613 17.5715C28.0775 17.9435 30.0607 18.3871 31.8435 18.0437C32.2327 17.9693 32.6075 18.224 32.682 18.6103C32.7564 18.9995 32.5017 19.3744 32.1153 19.4488C31.5659 19.5489 31.0107 19.5947 30.4613 19.5947Z"
        fill="black" />
    <path
        d="M26.7928 33.9345C25.4678 33.9345 24.5435 33.7714 24.4662 33.7571C24.1457 33.6999 23.9054 33.4337 23.8825 33.1104C23.8596 32.787 24.0513 32.4865 24.3575 32.3778C25.2818 32.0544 27.7486 28.1997 30.3498 20.6478C30.4786 20.2758 30.885 20.0754 31.2599 20.2042C31.6347 20.333 31.8322 20.7394 31.7034 21.1142C31.154 22.711 28.7072 29.5791 26.3321 32.4922C27.6542 32.5323 29.5944 32.4178 31.3743 31.6538C31.7378 31.4992 32.1584 31.6652 32.3129 32.0287C32.4675 32.3921 32.3015 32.8128 31.9381 32.9673C30.1295 33.7457 28.2265 33.9345 26.7928 33.9345Z"
        fill="black" />
    <path
        d="M30.5359 37.7033C30.43 37.7033 30.3212 37.6804 30.2182 37.6289C29.8634 37.4544 29.7203 37.0251 29.8949 36.6703L31.4659 33.5024C31.6405 33.1476 32.0697 33.0045 32.4246 33.179C32.7794 33.3536 32.9225 33.7829 32.7479 34.1377L31.1769 37.3056C31.0538 37.5574 30.7992 37.7033 30.5359 37.7033Z"
        fill="black" />
    <path
        d="M54.7318 49.8168C53.4784 49.8168 52.1305 49.7109 50.6882 49.4676C38.1684 47.3672 33.3694 36.8992 33.1719 36.4527C33.0117 36.0922 33.1719 35.6687 33.5354 35.5084C33.8959 35.3482 34.3195 35.5084 34.4797 35.869C34.5255 35.972 39.1843 46.0851 50.9258 48.054C57.4418 49.1471 61.8115 47.3042 64.3298 45.5672C67.2859 43.5268 68.9514 40.7796 69.292 38.9653C69.3635 38.5761 69.7384 38.3214 70.1276 38.393C70.5168 38.4645 70.7714 38.8394 70.6999 39.2286C70.3365 41.1802 68.6624 44.3195 65.1454 46.7462C62.9705 48.2457 59.5451 49.8168 54.7318 49.8168Z"
        fill="black" />
    <path
        d="M58.0618 45.7588C57.458 45.7588 56.8084 45.6587 56.1302 45.404C55.761 45.2638 55.5722 44.8517 55.7124 44.4826C55.8526 44.1134 56.2647 43.9245 56.6338 44.0647C59.0262 44.9633 61.0465 43.2463 61.0666 43.2291C61.3642 42.9716 61.8163 43.0031 62.0767 43.3007C62.3343 43.5983 62.3028 44.0504 62.0052 44.3109C61.9193 44.3824 60.2996 45.7588 58.0618 45.7588Z"
        fill="black" />
    <path
        d="M66.0233 30.1599C65.9002 30.1599 65.7743 30.1541 65.6513 30.1398C64.0659 29.9624 63.1816 28.7061 63.0843 28.5631C62.7753 28.1052 62.8983 27.4813 63.3562 27.1723C63.8112 26.8661 64.4293 26.9834 64.7412 27.4384C64.7613 27.4642 65.2134 28.0823 65.8888 28.151C66.4153 28.2054 67.0134 27.9192 67.6659 27.3039C68.0694 26.9233 68.7018 26.9434 69.0824 27.3469C69.4602 27.7504 69.443 28.3828 69.0395 28.7634C68.0522 29.6906 67.0392 30.1599 66.0233 30.1599Z"
        fill="black" />
    <path
        d="M48.6672 29.6074C48.5327 29.6074 48.3954 29.6017 48.2609 29.5903C45.9401 29.4014 44.4835 27.6329 44.4234 27.5585C44.0771 27.1292 44.1429 26.4968 44.5722 26.1505C45.0014 25.8043 45.6281 25.8701 45.9773 26.2965C46.003 26.328 46.9903 27.4898 48.4383 27.5957C49.4285 27.673 50.4529 27.238 51.4888 26.3108C51.9009 25.9416 52.5334 25.976 52.9025 26.3881C53.2717 26.8001 53.2373 27.4326 52.8252 27.8017C51.486 29.0036 50.0895 29.6074 48.6672 29.6074Z"
        fill="black" />
    <path
        d="M56.5389 51.9545C56.3415 51.9545 56.144 51.943 55.9408 51.923C52.3866 51.5424 41.5523 45.8133 41.0945 45.5672C40.7453 45.3812 40.6137 44.9491 40.7968 44.5999C40.9829 44.2508 41.415 44.1192 41.7641 44.3023C41.8728 44.3596 52.813 50.1459 56.0954 50.4979C59.123 50.8184 61.7958 47.6562 61.8215 47.6247C62.0734 47.3214 62.5255 47.2785 62.8289 47.5303C63.1322 47.7821 63.1751 48.2314 62.9233 48.5376C62.8031 48.6864 60.0559 51.9545 56.5389 51.9545Z"
        fill="black" />
    <path
        d="M59.6414 54.9248C59.5298 54.9248 59.421 54.9104 59.3066 54.879C58.7056 54.713 57.7269 53.863 57.3349 53.5053C57.043 53.2392 57.0229 52.7871 57.2862 52.4952C57.5524 52.2033 58.0045 52.1833 58.2964 52.4465C58.8172 52.9216 59.4353 53.3909 59.6614 53.4882C60.2108 53.3193 61.4414 51.1187 62.2713 48.8122C62.4057 48.4402 62.815 48.2485 63.187 48.3801C63.559 48.5146 63.7507 48.9238 63.6191 49.2958C62.8436 51.4564 61.3326 54.9248 59.6414 54.9248Z"
        fill="black" />
    <path
        d="M49.3652 54.879C48.7385 54.879 48.1203 54.7645 47.5623 54.4726C44.9925 53.1419 40.9261 47.41 39.9302 44.7086C39.7929 44.3394 39.9846 43.9273 40.3538 43.79C40.7229 43.6526 41.135 43.8443 41.2724 44.2135C42.4914 47.5159 46.6094 52.3693 48.2205 53.202C49.8259 54.0348 52.6418 52.581 53.5919 51.9515C53.921 51.734 54.3645 51.8227 54.582 52.1518C54.7995 52.4809 54.7108 52.9244 54.3817 53.1419C54.2472 53.2335 51.7318 54.879 49.3652 54.879Z"
        fill="black" />
    <path
        d="M42.1914 54.4698C42.1313 54.4698 42.0712 54.4612 42.0111 54.4469C41.6276 54.3496 41.3987 53.9575 41.496 53.5769L42.3459 50.286C42.4432 49.9025 42.8353 49.6736 43.2159 49.7709C43.5993 49.8682 43.8283 50.2603 43.731 50.6409L42.881 53.9318C42.8009 54.2552 42.509 54.4698 42.1914 54.4698Z"
        fill="black" />
    <path
        d="M41.8876 56.8422C41.7388 56.8422 41.6043 56.8222 41.4927 56.7792C41.4755 56.7735 41.4497 56.7649 41.4182 56.7563C41.0548 56.6447 40.1992 56.3843 39.8243 55.5401C39.5524 54.9277 39.6154 54.1808 40.016 53.3195C40.1648 52.999 40.5254 52.8358 40.8659 52.9331C42.1966 53.3223 43.8535 53.9576 44.1712 54.7875C44.34 55.2254 44.2227 55.6889 43.8507 56.0581C43.4386 56.4702 42.5314 56.8422 41.8876 56.8422ZM41.1092 54.5156C41.0749 54.6988 41.0806 54.8476 41.1292 54.9592C41.238 55.2053 41.6272 55.3255 41.8332 55.3885C41.8675 55.3999 41.8962 55.4085 41.9248 55.4171C42.0993 55.4056 42.4198 55.2998 42.6402 55.1853C42.3225 54.9878 41.7445 54.736 41.1092 54.5156Z"
        fill="black" />
    <path
        d="M62.0276 56.8563C62.0133 56.8563 62.0019 56.8563 61.9876 56.8563C61.5926 56.8334 61.2893 56.4986 61.3122 56.1037C61.3294 55.7774 61.0575 54.524 60.7971 53.5453C60.6941 53.1647 60.9201 52.7727 61.3036 52.6697C61.6842 52.5695 62.0791 52.7927 62.1793 53.1762C62.3224 53.7056 62.7802 55.4827 62.743 56.1838C62.7201 56.5615 62.4054 56.8563 62.0276 56.8563Z"
        fill="black" />
    <path
        d="M62.3173 59.2975C61.991 59.2975 61.6848 59.2145 61.4216 59.0514C60.8693 58.708 60.5373 58.0584 60.4343 57.1169C60.4057 56.8422 60.5373 56.5732 60.7748 56.4301C62.7122 55.254 63.1872 55.3713 63.3875 55.4228C63.605 55.4772 63.7853 55.6117 63.8941 55.7977C64.2031 56.3213 64.0629 57.6406 63.8368 58.2816C63.6766 58.7338 63.4305 59.0257 63.1042 59.1487C62.8381 59.2489 62.572 59.2975 62.3173 59.2975ZM61.9395 57.4059C62.0082 57.652 62.0969 57.7865 62.1742 57.8352C62.2543 57.8838 62.3802 57.8695 62.4775 57.8466C62.5491 57.6749 62.6063 57.3487 62.6321 57.0425C62.4232 57.1427 62.1828 57.2686 61.9395 57.4059Z"
        fill="black" />
    <path
        d="M50.9991 60.1356C50.8102 60.1356 50.6214 60.0612 50.4783 59.9124C50.2064 59.6263 50.2179 59.1741 50.5069 58.9023L51.8089 57.6689L50.7072 56.5585C50.4296 56.2781 50.4325 55.8259 50.7101 55.5455C50.9905 55.2679 51.4427 55.2708 51.7231 55.5484L53.34 57.1795C53.4744 57.3169 53.5517 57.5029 53.546 57.6946C53.5431 57.8864 53.463 58.0695 53.3228 58.204L51.4884 59.9411C51.3511 60.0698 51.1765 60.1356 50.9991 60.1356Z"
        fill="black" />
    <path
        d="M53.7747 60.2902C53.3913 60.2902 53.0765 59.9869 53.0593 59.6034C53.045 59.2085 53.3512 58.8765 53.7461 58.8594L55.9353 58.7735C56.3245 58.7621 56.6622 59.0654 56.6793 59.4603C56.6936 59.8552 56.3874 60.1872 55.9925 60.2043L53.8034 60.2902C53.7948 60.2873 53.7862 60.2902 53.7747 60.2902Z"
        fill="black" />
    <path
        d="M68.0233 61.0946C67.6599 61.0946 67.348 60.8198 67.3108 60.4478C66.7642 54.8847 64.678 48.3544 64.6551 48.2886C64.5349 47.9137 64.741 47.5102 65.1158 47.3872C65.4907 47.267 65.8942 47.473 66.0173 47.8479C66.106 48.1198 68.1721 54.5871 68.733 60.3047C68.7702 60.6968 68.484 61.0488 68.092 61.086C68.0691 61.0946 68.0462 61.0946 68.0233 61.0946Z"
        fill="black" />
    <path
        d="M43.4102 90.1834C41.6703 90.1834 39.7844 89.9831 37.7555 89.4966C37.6697 89.4766 37.5867 89.4394 37.5151 89.3879C37.3377 89.2648 33.174 86.2544 33.4029 76.1412C33.4115 75.7463 33.7406 75.4258 34.1355 75.4429C34.5304 75.4515 34.8423 75.7806 34.8337 76.1755C34.7221 81.0318 35.6894 84.0537 36.5164 85.7335C37.2404 87.2016 37.9873 87.9227 38.242 88.143C43.7364 89.4222 48.1291 88.4092 50.8563 87.3217C53.1284 86.4175 54.6537 85.3186 55.2661 84.8321C54.7596 82.3968 51.8263 69.6881 45.1358 65.2268C42.151 63.2379 38.7571 62.9632 35.0512 64.4141C32.2182 65.5244 30.2551 67.27 30.235 67.29C29.9403 67.5533 29.4881 67.5304 29.2249 67.2386C28.9616 66.9438 28.9845 66.4945 29.2764 66.2284C29.3622 66.1511 37.8385 58.6449 45.9313 64.0392C49.2623 66.2598 52.0954 70.4694 54.3589 76.5533C56.0273 81.0375 56.7284 84.8235 56.757 84.9837C56.7999 85.2241 56.717 85.4731 56.5367 85.6391C56.2934 85.8594 51.4744 90.1834 43.4102 90.1834Z"
        fill="black" />
    <path
        d="M41.7304 87.9513C41.5158 87.9513 41.304 87.854 41.1609 87.6709C40.9206 87.3561 40.9806 86.9068 41.2926 86.6664C41.4385 86.5548 44.7752 84.068 50.0922 86.0884C50.5043 85.2957 51.3256 84.0537 52.5876 83.6359C53.1771 83.4413 54.1071 83.3555 55.206 84.0594C55.538 84.2712 55.6353 84.7148 55.4235 85.0467C55.2117 85.3787 54.7682 85.476 54.4362 85.2642C53.9297 84.9408 53.4718 84.8521 53.0426 84.9952C52.061 85.3186 51.3284 86.7437 51.1281 87.2674C51.0566 87.4505 50.9164 87.5965 50.7361 87.6737C50.5558 87.7481 50.3526 87.7481 50.1723 87.6709C45.2445 85.516 42.1968 87.7825 42.1654 87.8082C42.0337 87.9027 41.8821 87.9513 41.7304 87.9513Z"
        fill="black" />
    <path
        d="M67.3308 85.1411C67.1648 85.1411 66.996 85.0839 66.8615 84.9637C66.5667 84.7033 66.5324 84.2569 66.7899 83.9593C66.9015 83.8305 69.4685 80.9517 74.3619 82.2537C74.6309 81.3838 75.209 80.0474 76.3136 79.5151C76.8115 79.2747 77.6271 79.1087 78.6745 79.6696C79.0236 79.8556 79.1524 80.2906 78.9664 80.6397C78.7803 80.9889 78.3454 81.1176 77.9962 80.9316C77.3724 80.5968 77.0433 80.7542 76.9346 80.8057C76.1333 81.1892 75.6726 82.7631 75.5753 83.2868C75.5381 83.49 75.4122 83.6674 75.2347 83.7733C75.0545 83.8791 74.8398 83.8992 74.6452 83.8334C70.2125 82.3367 67.9632 84.7949 67.8716 84.8979C67.7257 85.0582 67.5282 85.1411 67.3308 85.1411Z"
        fill="black" />
    <path
        d="M25.9888 81.584C25.8229 81.584 25.654 81.5267 25.5195 81.4094C24.5895 80.6024 23.7224 79.6437 22.9383 78.562C22.7065 78.2415 22.778 77.7951 23.0985 77.5633C23.4191 77.3315 23.8655 77.403 24.0973 77.7235C24.8155 78.7165 25.6111 79.5951 26.4582 80.3305C26.7558 80.591 26.7872 81.0402 26.5297 81.3407C26.3866 81.5009 26.1892 81.584 25.9888 81.584Z"
        fill="black" />
    <path
        d="M33.4433 84.6116C32.9196 84.6116 32.0468 84.5601 30.9708 84.294C30.5874 84.1996 30.3527 83.8132 30.4472 83.4298C30.5416 83.0463 30.9279 82.8088 31.3114 82.9061C32.7909 83.2695 33.8068 83.1694 33.8182 83.1665C34.2074 83.1236 34.5622 83.4098 34.6052 83.8018C34.6481 84.1939 34.3676 84.5458 33.9756 84.5888C33.9556 84.5916 33.7667 84.6116 33.4433 84.6116Z"
        fill="black" />
    <path
        d="M28.3863 66.6892C28.3463 66.6892 28.3062 66.6864 28.2662 66.6806L27.7625 66.5976C27.3733 66.5318 27.11 66.1627 27.1759 65.7735C27.2417 65.3843 27.608 65.121 28 65.1868L28.5037 65.2698C28.8928 65.3357 29.1561 65.7048 29.0903 66.094C29.0331 66.4431 28.7297 66.6892 28.3863 66.6892Z"
        fill="black" />
    <path
        d="M66.4695 87.6165C65.6424 87.6165 64.8039 87.5421 63.9683 87.379C63.7566 87.3361 63.5734 87.2016 63.4733 87.0098L58.886 78.2817C58.7029 77.9326 58.8374 77.5005 59.1865 77.3145C59.5356 77.1314 59.9677 77.2658 60.1537 77.615L64.5779 86.034C70.616 87.0213 76.9432 82.7545 78.437 81.6642C78.0735 79.5552 76.1734 69.9457 71.0453 65.8649C65.445 61.4036 57.2434 65.5616 57.1633 65.6045C57.0746 65.6503 56.9744 65.6789 56.8743 65.6847L49.0419 66.1311C48.647 66.1569 48.3093 65.8535 48.2864 65.4586C48.2635 65.0637 48.564 64.726 48.9589 64.7031L56.6453 64.2624C57.1862 63.9991 59.1808 63.0891 61.7706 62.6284C65.7855 61.913 69.2996 62.6456 71.9352 64.746C78.1279 69.6795 79.8478 81.3809 79.9193 81.8789C79.9537 82.1307 79.8563 82.3797 79.656 82.5399C79.3699 82.766 73.2001 87.6137 66.4695 87.6165Z"
        fill="black" />
    <path
        d="M58.0649 84.9293C57.7387 84.9293 57.4439 84.7061 57.3695 84.3741C57.2808 83.9878 57.5212 83.6044 57.9046 83.5156L60.815 82.8431C61.2013 82.7544 61.5847 82.9948 61.6735 83.3783C61.7622 83.7646 61.5218 84.148 61.1383 84.2368L58.228 84.9093C58.1736 84.9236 58.1193 84.9293 58.0649 84.9293Z"
        fill="black" />
    <path
        d="M8.91024 63.5528C8.7185 63.5528 8.52391 63.4755 8.38369 63.3209C0.333806 54.5871 2.42855 42.7083 3.70199 38.0066C3.87941 37.3541 4.42886 36.8762 5.09849 36.7933C5.76812 36.7103 6.41771 37.0336 6.74967 37.6231C10.032 43.4266 15.1372 47.5245 17.8873 49.4533C18.2107 49.6794 18.2908 50.1258 18.0619 50.4492C17.8358 50.7725 17.3894 50.8526 17.066 50.6237C13.5833 48.1856 8.75284 44.0734 5.50198 38.3271C5.43903 38.2184 5.34459 38.2041 5.27304 38.2126C5.21581 38.2212 5.11279 38.2527 5.07845 38.3815C3.8651 42.8543 1.86479 54.1407 9.43105 62.3508C9.70005 62.6427 9.68002 63.0949 9.39099 63.361C9.25936 63.4898 9.0848 63.5528 8.91024 63.5528Z"
        fill="black" />
    <path
        d="M79.2152 74.7474C78.9462 74.7474 78.6915 74.5957 78.5685 74.3381C78.3997 73.9804 78.5513 73.5541 78.909 73.3852C80.2998 72.727 81.2327 70.8612 81.6047 69.997C76.7628 65.673 66.5123 48.191 66.0659 47.427C65.8655 47.0864 65.98 46.6486 66.3234 46.4483C66.6639 46.248 67.1018 46.3625 67.3021 46.7059C67.4137 46.8947 78.4741 65.7617 82.9011 69.2186C83.1415 69.4075 83.2359 69.728 83.1386 70.017C83.0899 70.1601 81.8938 73.5598 79.5243 74.6815C79.4213 74.7245 79.3154 74.7474 79.2152 74.7474Z"
        fill="black" />
    <path
        d="M76.4172 67.9223C76.1997 67.9223 75.9851 67.825 75.8448 67.6362C75.6073 67.3214 75.6731 66.8721 75.9879 66.6346L77.33 65.6273C77.6448 65.3898 78.0941 65.4527 78.3316 65.7704C78.5692 66.0852 78.5033 66.5344 78.1885 66.772L76.8464 67.7792C76.7176 67.8737 76.566 67.9223 76.4172 67.9223Z"
        fill="black" />
    <path
        d="M19.3377 81.3007C16.1126 81.3007 12.7444 80.0845 9.4764 77.7179C6.49168 75.5573 4.65449 73.2308 4.57722 73.1306C4.38835 72.8874 4.37405 72.5526 4.54288 72.295C4.6459 72.1405 14.8764 56.676 18.9629 49.9396C23.1895 42.9715 32.3841 39.8065 32.7733 39.6748C33.1482 39.5489 33.5517 39.7492 33.6804 40.1241C33.8063 40.499 33.606 40.9053 33.2311 41.0313C33.1396 41.0627 24.1396 44.1676 20.1876 50.6837C16.4789 56.7962 7.74795 70.0429 6.03381 72.6413C7.49327 74.3154 13.6287 80.7656 20.8487 79.7697L30.8817 53.9689C31.0248 53.5997 31.4397 53.4166 31.8089 53.5625C32.1781 53.7056 32.3583 54.1205 32.2153 54.4897L22.0334 80.674C21.9418 80.9087 21.7358 81.0775 21.4897 81.1204C20.78 81.2377 20.0617 81.3007 19.3377 81.3007Z"
        fill="black" />
    <path
        d="M21.1403 75.8665C21.0802 75.8665 21.0201 75.858 20.96 75.8436C20.6166 75.7549 12.4923 73.5915 9.13269 68.6151C8.91234 68.2888 8.99818 67.8424 9.32441 67.6221C9.65064 67.4017 10.0971 67.4875 10.3174 67.8138C13.3765 72.3495 21.2404 74.4386 21.3177 74.4586C21.7011 74.5588 21.9301 74.9479 21.8299 75.3314C21.7469 75.6519 21.4579 75.8665 21.1403 75.8665Z"
        fill="black" />
    <path
        d="M31.657 54.607C31.2678 54.607 30.9502 54.2979 30.9416 53.9059C30.8357 48.9838 26.4716 44.1276 26.4287 44.0789C26.1626 43.787 26.1855 43.3349 26.4774 43.0687C26.7693 42.8026 27.2214 42.8255 27.4875 43.1174C27.6821 43.332 32.2579 48.4143 32.3724 53.8773C32.381 54.2722 32.0662 54.5984 31.6713 54.607C31.6684 54.607 31.6627 54.607 31.657 54.607Z"
        fill="black" />
    <path
        d="M94.594 89.3847C94.2506 89.3847 93.9473 89.1386 93.8901 88.7866C93.8758 88.6951 92.3305 79.4032 91.8325 67.719C91.369 56.9048 91.7324 41.7579 96.0907 31.0152C96.2395 30.6489 96.6573 30.4715 97.0236 30.6203C97.3899 30.7691 97.5673 31.1869 97.4185 31.5532C95.0691 37.3509 92.4392 48.3169 93.2634 67.6417C93.7584 79.2401 95.2894 88.4576 95.3037 88.5491C95.3696 88.9383 95.1063 89.3075 94.7171 89.3733C94.6742 89.3819 94.6341 89.3847 94.594 89.3847Z"
        fill="#00E2ED" />
    <path
        d="M92.9424 84.998C92.7449 84.998 92.5503 84.9179 92.4101 84.7633C92.0181 84.3284 82.8006 73.9319 83.5246 57.2913C84.2515 40.5934 91.0165 35.5855 91.3027 35.3794C91.5459 35.2049 91.875 35.202 92.1211 35.3709C92.3701 35.5397 92.4845 35.8459 92.4101 36.1378C92.3758 36.278 88.833 50.2974 88.7415 60.5393C88.6728 68.0712 93.5748 83.9105 93.6235 84.0708C93.7236 84.3913 93.5863 84.7376 93.2944 84.9064C93.1828 84.9665 93.0626 84.998 92.9424 84.998ZM90.4041 38.4128C88.4295 41.037 85.4133 46.7288 84.9526 57.3514C84.4862 68.0626 88.4038 76.2241 91.0823 80.4908C89.6028 75.2025 87.2591 65.9536 87.3078 60.5278C87.3822 52.807 89.3653 43.0201 90.4041 38.4128Z"
        fill="#00E2ED" />
    <path
        d="M97.2549 80.8285C96.9544 80.8285 96.674 80.6368 96.5767 80.3363C92.9538 69.3589 94.728 57.4887 96.8514 49.4674C99.1464 40.7994 102.343 34.6154 102.374 34.5524C102.558 34.2033 102.987 34.0659 103.339 34.2491C103.688 34.4322 103.825 34.8643 103.642 35.2135C103.516 35.4538 91.2053 59.4948 97.9331 79.8899C98.0561 80.2648 97.853 80.6683 97.4781 80.7942C97.4065 80.8142 97.3293 80.8285 97.2549 80.8285Z"
        fill="#00E2ED" />
    <path
        d="M94.5938 89.6025C94.5079 89.6025 94.4221 89.5883 94.3391 89.5539C93.9699 89.4137 93.7868 88.9988 93.927 88.6296C93.9671 88.5237 98.0249 77.8697 99.719 69.6825C99.7992 69.2961 100.177 69.0472 100.566 69.1273C100.952 69.2074 101.201 69.5852 101.121 69.9743C99.4042 78.2761 95.3035 89.0359 95.2634 89.1447C95.1547 89.4251 94.8828 89.6025 94.5938 89.6025Z"
        fill="#00E2ED" />
    <path
        d="M95.6467 67.5875C95.6409 67.5875 95.6381 67.5875 95.6323 67.5875C95.309 67.5818 95.0285 67.3586 94.9513 67.041C94.8969 66.8177 93.6521 61.5294 96.7827 56.6989C99.0835 53.1475 103.104 50.8267 108.733 49.7965C109.082 49.7307 109.428 49.9367 109.54 50.2744C109.652 50.6121 109.5 50.9813 109.18 51.1415C109.082 51.1902 99.4784 56.0836 96.3335 67.0696C96.2448 67.3758 95.9643 67.5875 95.6467 67.5875ZM104.75 52.3549C101.711 53.5053 99.4441 55.2194 97.9818 57.4772C96.654 59.5291 96.2133 61.7011 96.1188 63.4238C98.4139 58.1154 102.014 54.5097 104.75 52.3549Z"
        fill="#00E2ED" />
    <path
        d="M99.4782 51.0443C99.4066 51.0443 99.3322 51.0329 99.2578 51.01C98.883 50.8898 98.6741 50.4863 98.7942 50.1114C98.8629 49.8968 100.557 44.8031 106.009 42.9086C106.289 42.8113 106.601 42.8972 106.79 43.1233C106.981 43.3493 107.01 43.6727 106.867 43.9302L103.121 50.6752C102.929 51.0215 102.494 51.1445 102.148 50.9528C101.802 50.7611 101.679 50.3261 101.871 49.9798L104.538 45.1779C101.27 47.1925 100.168 50.5064 100.156 50.5464C100.059 50.8526 99.7787 51.0443 99.4782 51.0443Z"
        fill="#00E2ED" />
    <path
        d="M102.998 35.7887C102.898 35.7887 102.798 35.783 102.695 35.7744C102.309 35.7372 102.025 35.3995 102.051 35.0132C102.151 33.5652 102.858 31.1156 104.873 31.1156C104.879 31.1156 104.881 31.1156 104.884 31.1156C105.728 31.1185 106.1 31.5849 106.246 31.8597C106.57 32.4692 106.435 33.3191 105.889 34.1347C105.339 34.956 104.306 35.7887 102.998 35.7887ZM104.873 32.5436C104.192 32.5436 103.811 33.4622 103.625 34.2291C104.043 34.0631 104.392 33.7541 104.621 33.4479C104.944 33.0186 105.002 32.6724 104.987 32.555C104.967 32.5493 104.927 32.5407 104.873 32.5436Z"
        fill="#00E2ED" />
    <path
        d="M102.569 35.5112C102.411 35.5112 102.254 35.4597 102.122 35.3538C100.986 34.4409 99.3751 32.4578 100.537 30.8037C101.023 30.1112 101.616 30.0711 101.928 30.1083C102.612 30.1913 103.233 30.7837 103.593 31.6994C103.982 32.6924 104.062 34.149 103.115 35.2594C102.972 35.4253 102.769 35.5112 102.569 35.5112ZM101.779 31.5392C101.762 31.5535 101.739 31.5792 101.707 31.625C101.301 32.2031 101.868 33.0416 102.377 33.611C102.477 33.1732 102.423 32.7125 102.303 32.3519C102.137 31.8397 101.885 31.5964 101.779 31.5392Z"
        fill="#00E2ED" />
    <path
        d="M100.709 29.0523C99.742 29.0523 98.935 28.7261 98.314 28.0793C96.9748 26.6943 97.0434 24.3105 97.0463 24.2104C97.052 24.0129 97.1407 23.8269 97.2924 23.6953C97.4441 23.5636 97.6387 23.5035 97.8361 23.5235C101.259 23.8755 103.222 25.7099 103.142 27.2752C103.096 28.0965 102.435 29.0523 100.709 29.0523ZM98.5258 25.0746C98.6173 25.7356 98.8406 26.5712 99.3442 27.0892C99.6905 27.4469 100.137 27.6215 100.709 27.6215C101.161 27.6215 101.694 27.5127 101.708 27.2065C101.737 26.6199 100.695 25.5096 98.5258 25.0746Z"
        fill="#00E2ED" />
    <path
        d="M104.982 27.3354C104.169 27.3354 103.107 27.1952 101.731 26.7945C101.35 26.6829 101.135 26.2852 101.244 25.9074C101.356 25.5297 101.754 25.3122 102.131 25.4209C103.783 25.9017 105.863 26.1106 106.327 25.6527C106.41 25.5697 106.415 25.4009 106.347 25.1462C105.883 23.4636 101.668 23.7469 99.6989 24.1475C99.3126 24.2247 98.9348 23.9758 98.8547 23.5895C98.7746 23.2031 99.0264 22.8254 99.4127 22.7453C100.163 22.5907 106.784 21.3431 107.726 24.7656C107.998 25.7529 107.66 26.3453 107.331 26.6715C107.179 26.8232 106.541 27.3354 104.982 27.3354Z"
        fill="#00E2ED" />
    <path
        d="M105.596 24.0187C105.227 24.0187 104.915 23.7354 104.884 23.3634C104.85 22.9685 105.144 22.6251 105.536 22.5907C106.755 22.4877 108.246 22.047 108.418 21.6121C108.464 21.4976 108.332 21.2515 108.089 20.9796C107.428 20.2528 105.825 20.2957 103.573 21.1027C101.679 21.7809 100.008 22.7596 99.9905 22.7682C99.6499 22.9685 99.2121 22.854 99.0118 22.5135C98.8115 22.173 98.9231 21.7351 99.2636 21.5348C100.013 21.0912 106.67 17.2909 109.145 20.0152C109.975 20.9281 109.929 21.6693 109.749 22.1329C109.154 23.6467 106.235 23.9644 105.657 24.013C105.637 24.0187 105.617 24.0187 105.596 24.0187Z"
        fill="#00E2ED" />
    <path
        d="M101.209 21.861C100.852 21.861 100.543 21.592 100.5 21.2286C100.445 20.7679 100.019 16.6814 101.484 14.8957C101.905 14.3806 102.463 14.083 103.095 14.0315C104.128 13.9485 104.955 14.3234 105.433 15.0903C106.303 16.4811 105.817 18.8448 104.918 20.3586C104.718 20.6992 104.277 20.8108 103.939 20.6105C103.599 20.4101 103.487 19.9694 103.688 19.6318C104.437 18.364 104.686 16.5984 104.22 15.8486C104.1 15.6569 103.862 15.4051 103.21 15.4594C102.964 15.4795 102.766 15.5882 102.589 15.8057C101.67 16.9246 101.796 19.9809 101.919 21.0655C101.965 21.4575 101.684 21.8124 101.29 21.8581C101.264 21.8581 101.238 21.861 101.209 21.861Z"
        fill="#00E2ED" />
    <path
        d="M97.3271 22.7967C97.0381 22.7967 96.7634 22.6192 96.6575 22.3302C96.6289 22.2558 95.9764 20.4959 95.6874 18.5127C95.2639 15.6167 95.8248 13.7509 97.35 12.9697C98.26 12.5032 98.9011 12.6835 99.2817 12.9182C100.589 13.7223 100.681 16.169 100.664 19.5372C100.661 20.3757 100.655 21.1684 100.701 21.735C100.733 22.1299 100.438 22.4733 100.043 22.5048C99.6565 22.5362 99.3046 22.2415 99.2731 21.8466C99.2244 21.2227 99.2273 20.3986 99.2302 19.5286C99.2387 17.8002 99.253 14.5808 98.529 14.1344C98.4003 14.0571 98.1399 14.1658 97.9968 14.2402C96.0537 15.2361 97.3758 20.1754 97.9939 21.8265C98.1313 22.1957 97.9453 22.6078 97.5732 22.748C97.496 22.7824 97.413 22.7967 97.3271 22.7967Z"
        fill="#00E2ED" />
    <path
        d="M96.3942 22.6508C96.3599 22.6508 96.3227 22.648 96.2883 22.6423C93.2635 22.193 89.9955 19.5087 89.5405 17.7087C89.3688 17.0277 89.5605 16.421 90.067 16.0404C90.937 15.3879 92.2362 15.6226 94.0419 16.7529C95.2123 17.4855 96.1824 18.344 96.2225 18.3784C96.5173 18.6416 96.5459 19.0938 96.2826 19.3885C96.0193 19.6833 95.5672 19.7119 95.2724 19.4486C93.6785 18.0378 91.4836 16.7701 90.9255 17.1851C90.8998 17.228 90.8998 17.4226 91.1173 17.7889C91.9271 19.1539 94.3996 20.9138 96.4972 21.2257C96.8893 21.283 97.1583 21.6493 97.0982 22.0384C97.0467 22.3962 96.7433 22.6508 96.3942 22.6508Z"
        fill="#00E2ED" />
    <path
        d="M92.2647 24.1158C90.8911 24.1158 89.6234 23.6694 88.7592 23.0484C87.9608 22.4732 87.5859 21.8008 87.7061 21.1569C88.0237 19.4628 90.8082 19.5858 91.3605 19.6259C91.7554 19.6545 92.0501 19.9979 92.0215 20.3928C91.9929 20.7877 91.6495 21.0853 91.2546 21.051C90.0012 20.9566 89.2171 21.257 89.1226 21.3972C89.177 21.5289 89.4803 21.9009 90.1958 22.2328C91.2803 22.7336 92.9888 22.9626 94.5312 22.1012C94.8746 21.9095 95.3124 22.0325 95.5042 22.3759C95.6959 22.7193 95.5728 23.1572 95.2294 23.3489C94.2622 23.8926 93.2377 24.1158 92.2647 24.1158Z"
        fill="#00E2ED" />
    <path
        d="M92.1238 27.8448C91.4284 27.8448 90.6901 27.5872 89.8888 27.0664C89.1877 26.6114 89.0074 26.0448 88.9788 25.6527C88.9016 24.5624 89.9089 23.6553 90.0233 23.5551C90.321 23.2976 90.7731 23.3262 91.0335 23.6267C91.2911 23.9243 91.2624 24.3736 90.9648 24.634C90.7187 24.8515 90.3868 25.295 90.4068 25.5554C90.4154 25.6556 90.5012 25.7615 90.6672 25.8702C91.4313 26.3681 92.0265 26.5198 92.5445 26.3481C93.3057 26.0934 94.0297 25.0833 94.6392 23.4206C94.7766 23.0486 95.1858 22.8597 95.5578 22.9942C95.9298 23.1316 96.1187 23.5408 95.9842 23.9128C95.1972 26.0591 94.2214 27.2982 92.9966 27.7074C92.7133 27.799 92.4214 27.8448 92.1238 27.8448Z"
        fill="#00E2ED" />
    <path
        d="M95.8133 30.4918C94.8489 30.4918 94.3081 30.0625 94.0219 29.6934C93.1119 28.5258 93.6299 26.5627 93.6928 26.3424C93.8016 25.9618 94.1936 25.7414 94.5742 25.8473C94.9548 25.956 95.1752 26.3509 95.0693 26.7287C94.9377 27.2037 94.7831 28.3398 95.1523 28.812C95.241 28.9236 95.4098 29.0695 95.8706 29.0581C96.171 29.0495 96.3799 28.9522 96.5488 28.749C97.1497 28.0136 97.0095 26.2222 96.9122 25.6527C96.8464 25.2635 97.1068 24.8943 97.496 24.8285C97.8852 24.7627 98.2543 25.0231 98.323 25.4123C98.3717 25.7014 98.778 28.2854 97.6562 29.6562C97.227 30.1827 96.6232 30.4718 95.9135 30.4918C95.8791 30.4918 95.8448 30.4918 95.8133 30.4918Z"
        fill="#00E2ED" />
    <path
        d="M82.4391 33.3672C82.0699 33.3672 81.7608 33.0868 81.7265 32.7148C81.5977 31.2639 81.9125 28.7285 83.9128 28.4194C84.7484 28.2906 85.1891 28.6913 85.3751 28.9402C85.7901 29.4897 85.7929 30.351 85.3809 31.241C84.9344 32.2083 83.9386 33.2757 82.482 33.3644C82.4677 33.3673 82.4534 33.3672 82.4391 33.3672ZM84.2219 29.8274C84.199 29.8274 84.1704 29.8302 84.1303 29.8359C83.4549 29.939 83.2231 30.9091 83.1602 31.696C83.5465 31.4642 83.8413 31.1065 84.0216 30.7688C84.2734 30.2938 84.2763 29.9418 84.2419 29.8302C84.2362 29.8274 84.2305 29.8274 84.2219 29.8274Z"
        fill="#00E2ED" />
    <path
        d="M81.6298 32.5633C81.5096 32.5633 81.3866 32.5319 81.275 32.4689C80.0101 31.7478 78.1071 30.0422 78.9942 28.225C79.3662 27.4667 79.9443 27.3322 80.2562 27.3208C80.9487 27.2864 81.6527 27.7844 82.1506 28.6285C82.6915 29.5471 82.9977 30.9751 82.2394 32.22C82.1049 32.4403 81.8702 32.5633 81.6298 32.5633ZM80.3392 28.7545C80.3249 28.7716 80.3049 28.8031 80.282 28.8517C79.9729 29.487 80.6626 30.2254 81.2549 30.7061C81.2864 30.2597 81.1605 29.8133 80.9831 29.4727C80.737 28.9948 80.4508 28.7917 80.3392 28.7545Z"
        fill="#00E2ED" />
    <path
        d="M84.4 44.9057C84.0852 44.9057 83.7991 44.6968 83.7103 44.3792C83.5272 43.7181 83.221 43.2402 82.7975 42.5763C82.4083 41.9668 81.9218 41.2084 81.4239 40.1038C79.0859 34.907 81.2865 32.1026 81.3809 31.9852C81.6299 31.679 82.0821 31.6304 82.3883 31.8794C82.6945 32.1283 82.7402 32.5747 82.497 32.8809C82.4169 32.9868 80.7828 35.1875 82.7288 39.5143C83.1838 40.5245 83.6188 41.2027 84.0022 41.8037C84.4572 42.5133 84.8521 43.1286 85.0897 43.9985C85.1955 44.3791 84.9695 44.7741 84.5889 44.8771C84.5259 44.8971 84.463 44.9057 84.4 44.9057Z"
        fill="#00E2ED" />
    <path
        d="M97.4361 24.093C98.966 24.093 100.206 23.4012 100.206 22.5478C100.206 21.6943 98.966 21.0024 97.4361 21.0024C95.9062 21.0024 94.666 21.6943 94.666 22.5478C94.666 23.4012 95.9062 24.093 97.4361 24.093Z"
        fill="#00E2ED" />
    <path
        d="M19.0946 94.7533C18.7254 94.7533 18.4163 94.4729 18.382 94.1009C18.2532 92.65 18.568 90.1146 20.5683 89.8055C21.4039 89.6768 21.8446 90.0774 22.0306 90.3263C22.4456 90.8758 22.4485 91.7372 22.0364 92.6271C21.5899 93.5944 20.5941 94.6618 19.1375 94.7505C19.1232 94.7505 19.1089 94.7533 19.0946 94.7533ZM20.8774 91.2135C20.8545 91.2135 20.8259 91.2163 20.7858 91.222C20.1105 91.3251 19.8787 92.2952 19.8157 93.0821C20.202 92.8503 20.4968 92.4926 20.6771 92.155C20.9289 91.6799 20.9318 91.3279 20.8974 91.2163C20.8917 91.2135 20.886 91.2135 20.8774 91.2135Z"
        fill="#00E2ED" />
    <path
        d="M18.2845 93.9466C18.1643 93.9466 18.0412 93.9151 17.9296 93.8522C16.6648 93.131 14.7618 91.4255 15.6517 89.6054C16.0238 88.8471 16.6018 88.7126 16.9137 88.7012C16.9309 88.7012 16.9481 88.7012 16.9681 88.7012C17.6406 88.7012 18.3245 89.1876 18.8082 90.0118C19.349 90.9304 19.6552 92.3584 18.8969 93.6032C18.7595 93.8236 18.5248 93.9466 18.2845 93.9466ZM16.9939 90.1406C16.9796 90.1577 16.9595 90.1892 16.9366 90.235C16.6361 90.8503 17.3001 91.5915 17.9096 92.0951C17.9411 91.6458 17.8152 91.1994 17.6406 90.8588C17.3945 90.3781 17.1055 90.1778 16.9939 90.1406Z"
        fill="#00E2ED" />
    <path
        d="M9.5024 92.5385C9.20192 92.5385 8.92434 92.3497 8.82418 92.0492C8.69827 91.6743 8.90145 91.268 9.27633 91.1449C10.2751 90.813 12.2324 88.4521 12.7332 86.695C12.882 86.1713 12.8792 85.7507 12.7304 85.5704C12.7046 85.5389 12.6846 85.5246 12.6789 85.5217C12.3068 85.4759 11.0763 86.8295 10.132 88.5608C9.9431 88.9071 9.50813 89.0359 9.16187 88.847C8.8156 88.6581 8.68683 88.2232 8.8757 87.8769C9.33643 87.0298 10.9647 84.2569 12.5358 84.1023C13.0337 84.0537 13.4916 84.2512 13.8293 84.6575C14.1612 85.0553 14.4788 85.7993 14.1097 87.0899C13.5059 89.2133 11.2537 91.9977 9.72847 92.5071C9.65407 92.5271 9.5768 92.5385 9.5024 92.5385Z"
        fill="#00E2ED" />
    <path
        d="M7.26203 92.1264C5.69384 92.1264 4.17429 91.1191 3.43598 90.0603C2.92374 89.3249 2.7921 88.5922 3.06682 87.997C3.21276 87.6822 3.48176 87.4619 3.82802 87.3761C4.23438 87.2759 5.49924 87.2931 8.43532 89.5767C8.74724 89.8199 8.80447 90.2692 8.56123 90.5811C8.41243 90.7729 8.18921 90.873 7.95742 90.8558C8.09764 90.976 8.18921 91.1477 8.20638 91.3423C8.23786 91.7372 7.94311 92.0806 7.55106 92.1121C7.4509 92.1236 7.35647 92.1264 7.26203 92.1264ZM4.38033 88.8012C4.41467 88.9128 4.48049 89.0644 4.6064 89.2418C5.15012 90.0202 6.35488 90.7757 7.43087 90.6899C7.46235 90.687 7.49383 90.687 7.52531 90.6899C6.33199 89.7627 4.99272 88.9671 4.38033 88.8012Z"
        fill="#00E2ED" />
    <path
        d="M83.0194 91.7831C82.7189 91.7831 82.4413 91.5942 82.3411 91.2937C82.2152 90.9189 82.4184 90.5125 82.7933 90.3894C83.792 90.0575 85.7494 87.6966 86.2502 85.9367C86.399 85.413 86.3961 84.9923 86.2473 84.8121C86.2216 84.7806 86.2015 84.7663 86.1958 84.7634C86.1901 84.7634 86.1844 84.7634 86.1786 84.7634C85.7837 84.7634 84.579 86.0941 83.6461 87.8025C83.4572 88.1488 83.0222 88.2776 82.676 88.0887C82.3297 87.8998 82.2009 87.4648 82.3898 87.1186C82.8505 86.2715 84.4788 83.4985 86.0499 83.344C86.5478 83.2925 87.0057 83.4928 87.3434 83.8963C87.6753 84.2941 87.9929 85.0381 87.6238 86.3288C87.02 88.4521 84.7678 91.2394 83.2426 91.7459C83.171 91.7716 83.0938 91.7831 83.0194 91.7831Z"
        fill="#00E2ED" />
    <path
        d="M80.775 91.3712C79.2068 91.3712 77.6872 90.3639 76.9489 89.305C76.4367 88.5696 76.305 87.837 76.5798 87.2418C76.7257 86.927 76.9947 86.7066 77.341 86.6208C77.7473 86.5235 79.0122 86.5378 81.9483 88.8214C82.2602 89.0646 82.3174 89.5139 82.0742 89.8258C81.9254 90.0176 81.7022 90.1177 81.4704 90.1006C81.6106 90.2207 81.7022 90.3925 81.7193 90.5871C81.7508 90.982 81.4561 91.3254 81.064 91.3568C80.9667 91.3683 80.8694 91.3712 80.775 91.3712ZM77.8961 88.0459C77.9305 88.1575 77.9963 88.3092 78.1222 88.4866C78.6659 89.265 79.8707 90.0176 80.9467 89.9346C80.9781 89.9317 81.0096 89.9317 81.0411 89.9346C79.8449 89.0074 78.5085 88.2147 77.8961 88.0459Z"
        fill="#00E2ED" />
    <path
        d="M74.1187 52.4896C73.4119 52.4896 72.6936 52.3408 72.0669 51.9945C71.7207 51.8028 71.5976 51.3678 71.7893 51.0215C71.8838 50.8498 72.0412 50.7325 72.2186 50.681C72.0068 50.598 71.838 50.4177 71.7836 50.1802C71.692 49.7967 71.9296 49.4104 72.313 49.3188C73.5178 49.0327 76.4281 48.4489 77.4182 49.2273C77.6987 49.4476 77.8532 49.7595 77.8532 50.1058C77.8561 50.7611 77.4326 51.3735 76.6599 51.8314C75.9903 52.2263 75.0631 52.4896 74.1187 52.4896ZM72.6793 50.701C72.7079 50.7125 72.7366 50.7268 72.7652 50.7411C73.7095 51.2648 75.1175 51.0788 75.9359 50.5951C76.1248 50.4835 76.2478 50.3748 76.3251 50.2889C75.6927 50.1916 74.1245 50.3605 72.6793 50.701Z"
        fill="#00E2ED" />
    <path
        d="M5.48714 83.3382C4.05631 83.3382 2.73136 82.8031 1.88717 82.1163C1.13455 81.5039 0.7797 80.7684 0.914199 80.1017C0.980017 79.7726 1.18319 79.5007 1.48939 79.3347C2.71132 78.6737 6.15965 79.93 7.58762 80.4994C7.95391 80.6454 8.13419 81.0632 7.98539 81.4295C7.9396 81.5411 7.87092 81.6355 7.78507 81.7099C7.86806 81.7786 7.93674 81.8702 7.97967 81.9761C8.1342 82.3395 7.96535 82.7601 7.59906 82.9147C6.90081 83.2123 6.17967 83.3382 5.48714 83.3382ZM2.37937 80.5567C2.45092 80.6797 2.594 80.8543 2.84583 81.0489C3.74725 81.7471 5.33548 82.1649 6.74629 81.7042C4.93485 81.0117 3.08334 80.5309 2.37937 80.5567Z"
        fill="#00E2ED" />
    <path
        d="M79.6621 61.7385C79.5934 61.7385 79.5247 61.7299 79.456 61.707C79.0783 61.5925 78.8637 61.1947 78.9781 60.8141C79.3129 59.7095 79.519 58.4847 79.4875 57.9067C79.2099 58.1928 78.8179 58.8339 78.5603 59.4491C78.4087 59.8126 77.988 59.9871 77.6246 59.8355C77.2583 59.6838 77.0866 59.266 77.2382 58.9026C77.5359 58.1843 78.6204 55.8778 80.0742 56.4072C81.1101 56.782 81.2017 58.4075 80.346 61.2319C80.2516 61.541 79.9683 61.7385 79.6621 61.7385Z"
        fill="#00E2ED" />
    <path
        d="M17.1268 46.3597C17.0868 46.3597 17.0467 46.3568 17.0038 46.3482C16.6146 46.2824 16.3542 45.9104 16.42 45.5212C16.4372 45.4211 18.0855 35.3394 11.4436 32.4205C11.083 32.2602 10.917 31.8395 11.0773 31.479C11.2375 31.1184 11.6582 30.9524 12.0188 31.1127C15.2181 32.5177 17.2356 35.5225 17.8537 39.7979C18.3087 42.9457 17.8508 45.6528 17.8308 45.7673C17.7707 46.1136 17.4674 46.3597 17.1268 46.3597Z"
        fill="#00E2ED" />
    <path
        d="M7.15899 33.7769C7.01305 33.7769 6.86424 33.7597 6.71829 33.7254C6.1803 33.6023 5.78825 33.2847 5.57935 32.8068C5.32752 32.2287 5.41051 31.4819 5.6051 30.7808C4.93547 30.9582 4.13707 30.9696 3.26712 30.5804C2.23119 30.1168 1.63024 29.2555 1.69892 28.334C1.77046 27.4097 2.50019 26.6685 3.65058 26.3537C4.37745 26.1534 5.32752 26.1477 6.07442 26.1906C5.68809 24.8914 5.63086 23.3175 6.91289 22.6536C7.37934 22.4104 7.86869 22.4075 8.29221 22.645C8.80731 22.934 9.14499 23.5665 9.36534 24.2476C9.82607 23.515 10.4156 22.8339 11.0766 22.645C11.5145 22.5191 11.9609 22.6049 12.3329 22.8825C12.9281 23.329 13.1828 24.0129 13.0483 24.8142C12.9997 25.1146 12.8909 25.4294 12.7421 25.7385C14.5879 25.4437 15.2232 26.0733 15.4292 26.4396C15.6839 26.8917 15.6782 27.4154 15.4092 27.9134C14.7625 29.1181 12.5189 30.1798 10.0664 30.4717C9.8232 31.2872 9.24515 32.8211 8.21781 33.465C7.88585 33.671 7.52529 33.7769 7.15899 33.7769ZM7.10748 28.3712C7.25628 28.3712 7.40509 28.417 7.53101 28.5114C7.8229 28.7261 7.90875 29.1267 7.72846 29.4415C7.16471 30.4259 6.69253 31.7823 6.89285 32.2345C6.90716 32.2688 6.92434 32.3031 7.04166 32.3318C7.19047 32.3661 7.31352 32.3432 7.4566 32.2517C8.09762 31.8482 8.62703 30.4402 8.80731 29.6475C8.87599 29.3413 9.13926 29.1153 9.45119 29.0924C12.3386 28.8777 14.1901 27.5499 14.1844 27.1407C13.8839 26.9175 12.2499 27.2237 10.7704 27.796C10.6989 27.8275 10.6302 27.8561 10.5587 27.879C10.1924 27.9992 9.79746 27.8075 9.66296 27.444C9.52846 27.0806 9.70874 26.68 10.0664 26.5369C10.118 26.5169 10.1695 26.4968 10.2181 26.4768C10.7218 26.2307 11.5087 25.3522 11.6346 24.5824C11.6976 24.1989 11.5459 24.0844 11.4715 24.0272C11.1052 24.0644 10.2353 25.418 9.71732 26.7515C9.59713 27.0634 9.27377 27.2495 8.94467 27.2008C8.61272 27.1522 8.36089 26.8774 8.338 26.5455C8.25501 25.3894 7.90303 24.1102 7.614 23.907C7.60541 23.9099 7.5911 23.9156 7.57393 23.9242C6.88141 24.2819 7.50239 26.0819 7.80573 26.6971C7.92305 26.9347 7.90016 27.218 7.74277 27.4326C7.58824 27.6472 7.32496 27.7588 7.06169 27.7216C6.51797 27.6444 4.90972 27.4956 4.03404 27.7359C3.49891 27.8819 3.15265 28.1566 3.12975 28.4456C3.10686 28.7432 3.39303 29.0695 3.85376 29.2755C5.31607 29.9308 6.52942 28.6574 6.58093 28.603C6.72115 28.4485 6.91288 28.3712 7.10748 28.3712Z"
        fill="#00E2ED" />
    <path
        d="M8.84212 29.516C9.58336 29.516 10.1842 28.9151 10.1842 28.1739C10.1842 27.4327 9.58336 26.8318 8.84212 26.8318C8.10089 26.8318 7.5 27.4327 7.5 28.1739C7.5 28.9151 8.10089 29.516 8.84212 29.516Z"
        fill="#00E2ED" />
    <path
        d="M18.4195 35.8773C18.2964 35.8773 18.1676 35.8459 18.0532 35.7772C17.7126 35.574 17.601 35.1362 17.8042 34.7985C17.8385 34.7413 19.7645 31.4017 19.318 27.4783L17.1088 32.9556C16.96 33.3219 16.5451 33.4993 16.1788 33.3505C15.8125 33.2017 15.6351 32.7868 15.7839 32.4205L18.843 24.8342C18.9546 24.5594 19.2293 24.3792 19.5212 24.3877C19.8188 24.3935 20.0821 24.5852 20.1794 24.8656C22.0881 30.2885 19.1578 35.3193 19.0347 35.5311C18.9031 35.7543 18.6627 35.8773 18.4195 35.8773Z"
        fill="#00E2ED" />
    <path
        d="M29.6204 80.9345C29.2884 80.9345 28.9937 80.7055 28.9221 80.3707C28.6159 78.9485 28.6188 76.3901 30.5647 75.8407C31.3774 75.6118 31.8639 75.9523 32.0814 76.1784C32.5593 76.6735 32.668 77.5262 32.3676 78.462C32.0442 79.4779 31.1857 80.6569 29.752 80.923C29.7091 80.9288 29.6633 80.9345 29.6204 80.9345ZM31.0655 77.1943C31.0426 77.1943 31.0083 77.2 30.9568 77.2143C30.2757 77.406 30.187 78.4133 30.2242 79.1774C30.5762 78.9027 30.8251 78.5106 30.9625 78.1529C31.1542 77.6521 31.1113 77.303 31.0655 77.1943Z"
        fill="#00E2ED" />
    <path
        d="M28.7184 80.2334C28.6268 80.2334 28.5324 80.2163 28.4437 80.1791C27.1016 79.6182 25.0011 78.1587 25.6622 76.2443C25.9369 75.4458 26.4978 75.2427 26.804 75.1911C27.485 75.0795 28.2462 75.4802 28.8443 76.2585C29.4939 77.1056 29.9718 78.4821 29.3738 79.8128C29.2507 80.076 28.9903 80.2334 28.7184 80.2334ZM27.0587 76.6077C27.0472 76.6277 27.03 76.6592 27.0129 76.7107C26.7839 77.3775 27.5594 78.0271 28.2062 78.4334C28.1804 77.987 28.003 77.5578 27.7855 77.243C27.485 76.7966 27.1731 76.6306 27.0587 76.6077Z"
        fill="#00E2ED" />
    <path
        d="M30.7166 88.6238C30.5363 88.6238 30.3531 88.5551 30.2158 88.4178C28.0667 86.303 27.7004 84.0623 27.769 82.5513C27.8434 80.9173 28.4387 79.7755 28.4644 79.7297C28.6505 79.3806 29.0825 79.2461 29.4317 79.4322C29.7808 79.6153 29.9124 80.0474 29.7293 80.3965C29.652 80.5482 27.8692 84.0995 31.2202 87.399C31.5007 87.6766 31.5064 88.1288 31.2288 88.4121C31.0857 88.5523 30.9026 88.6238 30.7166 88.6238Z"
        fill="#00E2ED" />
</svg>